<svg width="54" height="74" viewBox="0 0 54 74" fill="none" xmlns="http://www.w3.org/2000/svg">
<path d="M52.5 26.8902C52.5 38.281 46.0126 49.5976 39.3161 58.2044C35.9902 62.4792 32.6609 66.0245 30.1627 68.5008C28.9145 69.7382 27.8761 70.7064 27.1523 71.3631C27.0998 71.4106 27.0491 71.4566 27 71.5008C26.9509 71.4566 26.9002 71.4106 26.8477 71.3631C26.1239 70.7064 25.0855 69.7382 23.8372 68.5008C21.3391 66.0245 18.0098 62.4792 14.6839 58.2044C7.9874 49.5976 1.5 38.281 1.5 26.8902C1.5 12.8734 12.911 1.5 27 1.5C41.089 1.5 52.5 12.8734 52.5 26.8902Z" fill="#333333" stroke="white" stroke-width="3"/>
<path d="M24.3737 43.5V19.4786H15V15H39V19.4786H29.6263V43.5H24.3737Z" fill="#BFBFBF"/>
</svg>
